<svg width="207" height="172" viewBox="0 0 207 172" fill="none" xmlns="http://www.w3.org/2000/svg">
<path d="M28.941 5.75908C28.9555 8.70456 31.3549 11.0807 34.3004 11.0662C37.2459 11.0518 39.622 8.65231 39.6076 5.70683C39.5931 2.76134 37.1937 0.385255 34.2482 0.399685C31.3027 0.414115 28.9266 2.8136 28.941 5.75908ZM87.6861 94.3511L88.3452 95.1031L88.3497 95.0992L87.6861 94.3511ZM78.0175 109.285L77.4643 110.118L77.4745 110.125L78.0175 109.285ZM196.802 171.543C197.113 172 197.735 172.118 198.192 171.807L205.63 166.739C206.086 166.428 206.204 165.806 205.893 165.35C205.582 164.893 204.96 164.776 204.504 165.086L197.892 169.591L193.388 162.979C193.077 162.523 192.455 162.405 191.998 162.716C191.542 163.027 191.424 163.649 191.735 164.106L196.802 171.543ZM33.9205 4.79762C19.2266 10.3551 8.48438 23.1157 3.41425 37.7743C-1.65583 52.4327 -1.09613 69.1105 6.97347 82.5597L8.68846 81.5307C0.976725 68.6779 0.390995 52.6334 5.30438 38.4281C10.2177 24.2229 20.5878 11.9785 34.6281 6.66829L33.9205 4.79762ZM6.97347 82.5597C15.0446 96.0116 29.5203 104.288 44.86 106.645C60.1996 109.002 76.5313 105.459 88.3452 95.1031L87.0269 93.5991C75.735 103.497 60.0298 106.952 45.1637 104.668C30.2976 102.384 16.3986 94.3809 8.68846 81.5307L6.97347 82.5597ZM88.3497 95.0992C92.4831 91.4324 96.0952 86.5782 98.0523 81.3713C100.012 76.1581 100.335 70.5166 97.7426 65.3956L95.9581 66.2988C98.2294 70.7862 98.0024 75.8196 96.1802 80.6676C94.3555 85.5221 90.9539 90.1155 87.0225 93.603L88.3497 95.0992ZM97.7426 65.3956C95.3167 60.6027 90.6989 57.5688 85.6214 56.4045C80.5467 55.2409 74.9173 55.9193 70.3623 58.6595L71.3933 60.3733C75.4601 57.9267 80.5512 57.2938 85.1744 58.3539C89.7947 59.4134 93.8523 62.1383 95.9581 66.2988L97.7426 65.3956ZM70.3623 58.6595C61.3004 64.111 57.5408 75.8794 59.7402 85.9402L61.6941 85.513C59.6387 76.1112 63.2116 65.2953 71.3933 60.3733L70.3623 58.6595ZM59.7402 85.9402C61.9371 95.9892 68.9636 104.474 77.4643 110.118L78.5706 108.452C70.3795 103.013 63.752 94.9267 61.6941 85.513L59.7402 85.9402ZM77.4745 110.125C91.6607 119.297 109.101 121.186 125.617 122.417L125.765 120.423C109.212 119.189 92.2649 117.306 78.5604 108.445L77.4745 110.125ZM125.617 122.417C142.214 123.654 159.069 124.555 173.668 131.927L174.569 130.141C159.541 122.553 142.237 121.651 125.765 120.423L125.617 122.417ZM173.668 131.927C188.248 139.289 199.628 155.066 196.646 170.794L198.611 171.167C201.819 154.246 189.616 137.739 174.569 130.141L173.668 131.927Z" fill="#FFCC49"/>
</svg>
