<svg width="164" height="44" viewBox="0 0 164 44" fill="none" xmlns="http://www.w3.org/2000/svg">
<path d="M19.383 0H27.6889L9.2586 34.6365H0.952637L19.383 0Z" fill="#FE0007"/>
<path d="M29.8571 0H38.163L19.7327 34.6365H11.4268L29.8571 0Z" fill="#FE0007"/>
<path d="M40.3317 0H153.526L135.096 34.6365H21.9014L40.3317 0Z" fill="white"/>
<path d="M155.694 0H164L145.57 34.6365H137.264L155.694 0Z" fill="#0A27F4"/>
<path d="M70.9893 3.56079H79.4384V30.9131H70.9893V3.56079Z" fill="black"/>
<path d="M93.9022 3.56079H105.328L90.0664 16.5925H79.7248L93.9022 3.56079Z" fill="black"/>
<path d="M93.9022 29.6243H105.328L90.0664 16.5925H79.7248L93.9022 29.6243Z" fill="black"/>
<path d="M108.796 3.56079H117.245V30.9131H108.796V3.56079Z" fill="black"/>
<path d="M133.805 3.56079H117.245V10.0767H130.658C132.274 10.0767 133.583 11.3864 133.583 13.002C133.583 14.6175 132.274 15.9272 130.658 15.9272H119.166L125.438 22.1796H133.805C137.996 22.1796 141.394 18.7819 141.394 14.5906V11.1497C141.394 6.95848 137.996 3.56079 133.805 3.56079Z" fill="black"/>
<path d="M42.6602 3.56079H52.2107L37.9632 30.9131H28.4126L42.6602 3.56079Z" fill="black"/>
<path d="M54.4027 3.56079H44.8521L59.0996 30.9131H68.6502L54.4027 3.56079Z" fill="black"/>
<path d="M43.7629 19.7523H46.3071L42.9911 26.1368H40.4468L43.7629 19.7523Z" fill="black"/>
<path d="M46.587 19.7522H49.1313L45.8152 26.1367H43.271L46.587 19.7522Z" fill="#FE0007"/>
<path d="M49.4112 19.7522H51.9555L48.6395 26.1367H46.0952L49.4112 19.7522Z" fill="#0A27F4"/>
<path d="M23.8846 40.1664H22.0603L21.8432 40.6691C21.7721 40.8367 21.7365 40.975 21.7365 41.0842C21.7365 41.229 21.7949 41.3356 21.9117 41.4042C21.9803 41.4448 22.1491 41.4752 22.4183 41.4956V41.6365H20.7006V41.4956C20.8859 41.4676 21.0383 41.3915 21.1576 41.267C21.277 41.1401 21.4242 40.8798 21.5994 40.4863L23.4466 36.3654H23.5189L25.3813 40.6005C25.5591 41.0017 25.7051 41.2543 25.8193 41.3584C25.9057 41.4372 26.0275 41.4829 26.185 41.4956V41.6365H23.6865V41.4956H23.7894C23.9899 41.4956 24.1309 41.4676 24.2121 41.4118C24.268 41.3711 24.2959 41.3127 24.2959 41.2366C24.2959 41.1909 24.2883 41.1439 24.273 41.0957C24.268 41.0728 24.2299 40.9776 24.1588 40.81L23.8846 40.1664ZM23.7551 39.8845L22.9857 38.1059L22.1936 39.8845H23.7551ZM28.3482 39.2828V40.73C28.3482 41.0093 28.3647 41.1858 28.3978 41.2594C28.4333 41.3305 28.4942 41.3876 28.5806 41.4308C28.6669 41.474 28.8281 41.4956 29.0643 41.4956V41.6365H26.4211V41.4956C26.6598 41.4956 26.821 41.474 26.9048 41.4308C26.9911 41.3851 27.0508 41.3267 27.0838 41.2556C27.1193 41.1845 27.1371 41.0093 27.1371 40.73V37.3785C27.1371 37.0992 27.1193 36.924 27.0838 36.8529C27.0508 36.7792 26.9911 36.7208 26.9048 36.6777C26.8185 36.6345 26.6572 36.6129 26.4211 36.6129V36.472H28.8205C29.4451 36.472 29.9021 36.5152 30.1916 36.6015C30.4811 36.6878 30.7172 36.8478 30.9 37.0814C31.0828 37.3125 31.1742 37.5841 31.1742 37.8964C31.1742 38.2773 31.0371 38.5921 30.7629 38.841C30.5877 38.9984 30.3427 39.1165 30.0278 39.1952L31.2694 40.9433C31.4319 41.1693 31.5475 41.3102 31.616 41.3661C31.7201 41.4448 31.8407 41.4879 31.9778 41.4956V41.6365H30.3516L28.6872 39.2828H28.3482ZM28.3482 36.75V39.0124H28.5653C28.9183 39.0124 29.1823 38.9806 29.3575 38.9171C29.5327 38.8511 29.6698 38.7343 29.7688 38.5667C29.8704 38.3966 29.9212 38.1757 29.9212 37.9041C29.9212 37.5105 29.8285 37.2198 29.6432 37.0319C29.4604 36.844 29.1646 36.75 28.7558 36.75H28.3482ZM35.6303 39.8769L37.0318 36.472H39.1342V36.6129H38.9666C38.8143 36.6129 38.6924 36.6396 38.601 36.6929C38.5375 36.7285 38.4867 36.7881 38.4486 36.8719C38.4207 36.9329 38.4067 37.0916 38.4067 37.348V40.7529C38.4067 41.0169 38.4207 41.182 38.4486 41.248C38.4766 41.314 38.5337 41.3724 38.62 41.4232C38.7063 41.4714 38.8219 41.4956 38.9666 41.4956H39.1342V41.6365H36.4377V41.4956H36.6053C36.7576 41.4956 36.8795 41.4689 36.9709 41.4156C37.0344 41.38 37.0852 41.3191 37.1232 41.2328C37.1512 41.1718 37.1651 41.0119 37.1651 40.7529V36.9252L35.1847 41.6365H35.0933L33.0823 36.9595V40.5967C33.0823 40.8506 33.0887 41.0068 33.1014 41.0652C33.1344 41.1921 33.2055 41.2962 33.3146 41.3775C33.4264 41.4562 33.6003 41.4956 33.8364 41.4956V41.6365H32.0692V41.4956H32.1226C32.2368 41.4981 32.3435 41.4803 32.4425 41.4422C32.5415 41.4016 32.6164 41.3483 32.6672 41.2823C32.718 41.2163 32.7573 41.1236 32.7853 41.0042C32.7903 40.9763 32.7929 40.8468 32.7929 40.6158V37.348C32.7929 37.0865 32.7789 36.924 32.751 36.8605C32.723 36.7945 32.6659 36.7374 32.5796 36.6891C32.4933 36.6383 32.3777 36.6129 32.233 36.6129H32.0692V36.472H34.1792L35.6303 39.8769ZM42.5238 40.1664H40.6995L40.4824 40.6691C40.4113 40.8367 40.3758 40.975 40.3758 41.0842C40.3758 41.229 40.4342 41.3356 40.551 41.4042C40.6195 41.4448 40.7884 41.4752 41.0575 41.4956V41.6365H39.3398V41.4956C39.5252 41.4676 39.6775 41.3915 39.7969 41.267C39.9162 41.1401 40.0635 40.8798 40.2387 40.4863L42.0858 36.3654H42.1582L44.0206 40.6005C44.1983 41.0017 44.3443 41.2543 44.4586 41.3584C44.5449 41.4372 44.6668 41.4829 44.8242 41.4956V41.6365H42.3258V41.4956H42.4286C42.6292 41.4956 42.7701 41.4676 42.8514 41.4118C42.9072 41.3711 42.9352 41.3127 42.9352 41.2366C42.9352 41.1909 42.9275 41.1439 42.9123 41.0957C42.9072 41.0728 42.8691 40.9776 42.798 40.81L42.5238 40.1664ZM42.3943 39.8845L41.625 38.1059L40.8328 39.8845H42.3943ZM46.858 36.472L49.406 39.675V37.4546C49.406 37.1449 49.3615 36.9354 49.2727 36.8262C49.1508 36.679 48.9464 36.6079 48.6595 36.6129V36.472H50.3657V36.6129C50.1474 36.6409 50.0001 36.6777 49.9239 36.7234C49.8503 36.7666 49.7919 36.8389 49.7487 36.9405C49.7081 37.0395 49.6878 37.2109 49.6878 37.4546V41.7545H49.5583L46.0658 37.4546V40.7376C46.0658 41.0347 46.1331 41.2353 46.2677 41.3394C46.4048 41.4435 46.5609 41.4956 46.7361 41.4956H46.858V41.6365H45.0261V41.4956C45.3104 41.493 45.5085 41.4346 45.6202 41.3204C45.7319 41.2061 45.7878 41.0119 45.7878 40.7376V37.0928L45.6773 36.9557C45.5682 36.8186 45.4717 36.7285 45.3879 36.6853C45.3041 36.6421 45.1835 36.618 45.0261 36.6129V36.472H46.858ZM55.7511 38.4487L57.5678 40.7224C57.8242 41.0423 58.0451 41.2594 58.2305 41.3737C58.365 41.4549 58.5072 41.4956 58.657 41.4956V41.6365H55.9682V41.4956C56.1383 41.4803 56.2475 41.4537 56.2957 41.4156C56.3465 41.3775 56.3719 41.3305 56.3719 41.2747C56.3719 41.168 56.2551 40.9674 56.0215 40.6729L54.837 39.1837L54.6466 39.3437V40.7529C54.6466 41.022 54.6618 41.1896 54.6923 41.2556C54.7228 41.3216 54.7812 41.3788 54.8675 41.427C54.9538 41.4727 55.0922 41.4956 55.2826 41.4956V41.6365H52.6775V41.4956H52.8489C52.9987 41.4956 53.1193 41.4689 53.2107 41.4156C53.2768 41.38 53.3275 41.3191 53.3631 41.2328C53.391 41.1718 53.405 41.0119 53.405 40.7529V37.3556C53.405 37.0916 53.391 36.9265 53.3631 36.8605C53.3352 36.7945 53.278 36.7374 53.1917 36.6891C53.1079 36.6383 52.9937 36.6129 52.8489 36.6129H52.6775V36.472H55.2483V36.6129C55.0731 36.6129 54.9398 36.6383 54.8484 36.6891C54.7824 36.7247 54.7304 36.7843 54.6923 36.8681C54.6618 36.9316 54.6466 37.0941 54.6466 37.3556V38.9628L56.5623 37.4127C56.8289 37.1969 56.9622 37.0243 56.9622 36.8948C56.9622 36.7983 56.9076 36.7221 56.7984 36.6663C56.7426 36.6383 56.6042 36.6206 56.3833 36.6129V36.472H58.398V36.6129C58.2178 36.6256 58.0756 36.6586 57.9715 36.712C57.8699 36.7627 57.6338 36.9379 57.2631 37.2375L55.7511 38.4487ZM60.7061 39.1533V40.7529C60.7061 41.0169 60.72 41.182 60.7479 41.248C60.7784 41.314 60.8355 41.3724 60.9193 41.4232C61.0057 41.4714 61.1212 41.4956 61.2659 41.4956H61.4373V41.6365H58.737V41.4956H58.9084C59.0582 41.4956 59.1788 41.4689 59.2702 41.4156C59.3362 41.38 59.387 41.3191 59.4226 41.2328C59.4505 41.1718 59.4645 41.0119 59.4645 40.7529V37.3556C59.4645 37.0916 59.4505 36.9265 59.4226 36.8605C59.3946 36.7945 59.3375 36.7374 59.2512 36.6891C59.1674 36.6383 59.0531 36.6129 58.9084 36.6129H58.737V36.472H61.4373V36.6129H61.2659C61.1161 36.6129 60.9955 36.6396 60.9041 36.6929C60.8381 36.7285 60.786 36.7894 60.7479 36.8757C60.72 36.9367 60.7061 37.0966 60.7061 37.3556V38.8181H62.5304V37.3556C62.5304 37.0916 62.5164 36.9265 62.4885 36.8605C62.4605 36.7945 62.4034 36.7374 62.3171 36.6891C62.2308 36.6383 62.1152 36.6129 61.9705 36.6129H61.8029V36.472H64.4994V36.6129H64.3318C64.1795 36.6129 64.0589 36.6396 63.97 36.6929C63.904 36.7285 63.852 36.7894 63.8139 36.8757C63.7859 36.9367 63.772 37.0966 63.772 37.3556V40.7529C63.772 41.0169 63.7859 41.182 63.8139 41.248C63.8418 41.314 63.8989 41.3724 63.9853 41.4232C64.0716 41.4714 64.1871 41.4956 64.3318 41.4956H64.4994V41.6365H61.8029V41.4956H61.9705C62.1229 41.4956 62.2435 41.4689 62.3323 41.4156C62.3983 41.38 62.4504 41.3191 62.4885 41.2328C62.5164 41.1718 62.5304 41.0119 62.5304 40.7529V39.1533H60.7061ZM67.6567 36.3997C68.4794 36.3692 69.1472 36.6091 69.6601 37.1195C70.1755 37.6298 70.4332 38.2684 70.4332 39.0352C70.4332 39.6903 70.2415 40.2667 69.8581 40.7643C69.3503 41.4245 68.633 41.7545 67.7063 41.7545C66.777 41.7545 66.0584 41.4397 65.5506 40.81C65.1494 40.3124 64.9488 39.722 64.9488 39.039C64.9488 38.2722 65.2091 37.6336 65.7296 37.1233C66.2526 36.6104 66.895 36.3692 67.6567 36.3997ZM67.7024 36.6434C67.2302 36.6434 66.8709 36.8846 66.6246 37.367C66.424 37.7631 66.3237 38.3319 66.3237 39.0733C66.3237 39.9543 66.4786 40.6056 66.7884 41.0271C67.0042 41.3216 67.3063 41.4689 67.6948 41.4689C67.9563 41.4689 68.1747 41.4054 68.3499 41.2785C68.5733 41.116 68.7473 40.857 68.8717 40.5015C68.9961 40.1435 69.0583 39.6776 69.0583 39.1038C69.0583 38.4208 68.9948 37.9104 68.8679 37.5727C68.7409 37.2325 68.5784 36.9925 68.3804 36.8529C68.1849 36.7132 67.9589 36.6434 67.7024 36.6434ZM70.8179 41.6365V41.4956H70.9893C71.1391 41.4956 71.2533 41.4727 71.332 41.427C71.4133 41.3788 71.4729 41.314 71.511 41.2328C71.5339 41.1794 71.5453 41.0195 71.5453 40.7529V37.3556C71.5453 37.0916 71.5313 36.9265 71.5034 36.8605C71.4755 36.7945 71.4184 36.7374 71.332 36.6891C71.2482 36.6383 71.134 36.6129 70.9893 36.6129H70.8179V36.472H73.1297C73.7467 36.472 74.2431 36.5558 74.6188 36.7234C75.0784 36.9291 75.4263 37.2401 75.6624 37.6565C75.9011 38.0729 76.0204 38.5439 76.0204 39.0695C76.0204 39.4326 75.962 39.7677 75.8452 40.075C75.7284 40.3796 75.5773 40.6323 75.392 40.8329C75.2066 41.0309 74.9921 41.1909 74.7483 41.3127C74.5071 41.4321 74.2113 41.5248 73.8609 41.5908C73.7061 41.6212 73.4623 41.6365 73.1297 41.6365H70.8179ZM72.7869 36.7653V40.7948C72.7869 41.0081 72.7971 41.1388 72.8174 41.1871C72.8377 41.2353 72.872 41.2721 72.9202 41.2975C72.9888 41.3356 73.0878 41.3546 73.2173 41.3546C73.6413 41.3546 73.965 41.2099 74.1885 40.9205C74.4932 40.5294 74.6455 39.9226 74.6455 39.1C74.6455 38.4373 74.5414 37.9079 74.3332 37.5118C74.1682 37.202 73.9562 36.9913 73.6972 36.8795C73.5144 36.8008 73.2109 36.7627 72.7869 36.7653ZM78.4236 39.2828V40.73C78.4236 41.0093 78.4401 41.1858 78.4731 41.2594C78.5087 41.3305 78.5696 41.3876 78.656 41.4308C78.7423 41.474 78.9035 41.4956 79.1396 41.4956V41.6365H76.4965V41.4956C76.7352 41.4956 76.8964 41.474 76.9802 41.4308C77.0665 41.3851 77.1262 41.3267 77.1592 41.2556C77.1947 41.1845 77.2125 41.0093 77.2125 40.73V37.3785C77.2125 37.0992 77.1947 36.924 77.1592 36.8529C77.1262 36.7792 77.0665 36.7208 76.9802 36.6777C76.8938 36.6345 76.7326 36.6129 76.4965 36.6129V36.472H78.8959C79.5205 36.472 79.9775 36.5152 80.267 36.6015C80.5564 36.6878 80.7926 36.8478 80.9754 37.0814C81.1582 37.3125 81.2496 37.5841 81.2496 37.8964C81.2496 38.2773 81.1125 38.5921 80.8383 38.841C80.6631 38.9984 80.4181 39.1165 80.1032 39.1952L81.3448 40.9433C81.5073 41.1693 81.6229 41.3102 81.6914 41.3661C81.7955 41.4448 81.9161 41.4879 82.0532 41.4956V41.6365H80.427L78.7626 39.2828H78.4236ZM78.4236 36.75V39.0124H78.6407C78.9937 39.0124 79.2577 38.9806 79.4329 38.9171C79.6081 38.8511 79.7452 38.7343 79.8442 38.5667C79.9458 38.3966 79.9966 38.1757 79.9966 37.9041C79.9966 37.5105 79.9039 37.2198 79.7186 37.0319C79.5357 36.844 79.2399 36.75 78.8312 36.75H78.4236ZM85.0011 36.3997C85.8237 36.3692 86.4915 36.6091 87.0044 37.1195C87.5198 37.6298 87.7775 38.2684 87.7775 39.0352C87.7775 39.6903 87.5858 40.2667 87.2024 40.7643C86.6946 41.4245 85.9773 41.7545 85.0506 41.7545C84.1213 41.7545 83.4027 41.4397 82.8949 40.81C82.4937 40.3124 82.2932 39.722 82.2932 39.039C82.2932 38.2722 82.5534 37.6336 83.0739 37.1233C83.597 36.6104 84.2394 36.3692 85.0011 36.3997ZM85.0468 36.6434C84.5745 36.6434 84.2152 36.8846 83.9689 37.367C83.7684 37.7631 83.6681 38.3319 83.6681 39.0733C83.6681 39.9543 83.8229 40.6056 84.1327 41.0271C84.3485 41.3216 84.6507 41.4689 85.0392 41.4689C85.3007 41.4689 85.519 41.4054 85.6942 41.2785C85.9177 41.116 86.0916 40.857 86.216 40.5015C86.3404 40.1435 86.4026 39.6776 86.4026 39.1038C86.4026 38.4208 86.3392 37.9104 86.2122 37.5727C86.0853 37.2325 85.9228 36.9925 85.7247 36.8529C85.5292 36.7132 85.3032 36.6434 85.0468 36.6434ZM92.1155 39.298V40.73C92.1155 41.0093 92.132 41.1858 92.165 41.2594C92.2006 41.3305 92.2615 41.3876 92.3479 41.4308C92.4367 41.474 92.598 41.4956 92.8315 41.4956V41.6365H90.2074V41.4956C90.4461 41.4956 90.6073 41.474 90.6911 41.4308C90.7774 41.3851 90.8371 41.3267 90.8701 41.2556C90.9057 41.1845 90.9234 41.0093 90.9234 40.73V37.3785C90.9234 37.0992 90.9057 36.924 90.8701 36.8529C90.8371 36.7792 90.7774 36.7208 90.6911 36.6777C90.6048 36.6345 90.4436 36.6129 90.2074 36.6129V36.472H92.4583C93.1997 36.472 93.7316 36.6041 94.0541 36.8681C94.3766 37.1322 94.5378 37.4623 94.5378 37.8583C94.5378 38.1935 94.4337 38.4804 94.2255 38.7191C94.0173 38.9578 93.7304 39.1203 93.3647 39.2066C93.1185 39.2675 92.7021 39.298 92.1155 39.298ZM92.1155 36.7691V39.0009C92.1993 39.006 92.2628 39.0085 92.306 39.0085C92.6157 39.0085 92.8544 38.9171 93.022 38.7343C93.1896 38.549 93.2733 38.2633 93.2733 37.8774C93.2733 37.494 93.1896 37.2134 93.022 37.0357C92.8544 36.858 92.6043 36.7691 92.2717 36.7691H92.1155ZM97.4438 40.1664H95.6194L95.4023 40.6691C95.3313 40.8367 95.2957 40.975 95.2957 41.0842C95.2957 41.229 95.3541 41.3356 95.4709 41.4042C95.5395 41.4448 95.7083 41.4752 95.9774 41.4956V41.6365H94.2598V41.4956C94.4451 41.4676 94.5975 41.3915 94.7168 41.267C94.8361 41.1401 94.9834 40.8798 95.1586 40.4863L97.0058 36.3654H97.0781L98.9405 40.6005C99.1183 41.0017 99.2643 41.2543 99.3785 41.3584C99.4648 41.4372 99.5867 41.4829 99.7441 41.4956V41.6365H97.2457V41.4956H97.3485C97.5491 41.4956 97.69 41.4676 97.7713 41.4118C97.8272 41.3711 97.8551 41.3127 97.8551 41.2366C97.8551 41.1909 97.8475 41.1439 97.8322 41.0957C97.8272 41.0728 97.7891 40.9776 97.718 40.81L97.4438 40.1664ZM97.3143 39.8845L96.5449 38.1059L95.7527 39.8845H97.3143ZM101.907 39.2828V40.73C101.907 41.0093 101.924 41.1858 101.957 41.2594C101.992 41.3305 102.053 41.3876 102.14 41.4308C102.226 41.474 102.387 41.4956 102.623 41.4956V41.6365H99.9803V41.4956C100.219 41.4956 100.38 41.474 100.464 41.4308C100.55 41.3851 100.61 41.3267 100.643 41.2556C100.679 41.1845 100.696 41.0093 100.696 40.73V37.3785C100.696 37.0992 100.679 36.924 100.643 36.8529C100.61 36.7792 100.55 36.7208 100.464 36.6777C100.378 36.6345 100.216 36.6129 99.9803 36.6129V36.472H102.38C103.004 36.472 103.461 36.5152 103.751 36.6015C104.04 36.6878 104.276 36.8478 104.459 37.0814C104.642 37.3125 104.733 37.5841 104.733 37.8964C104.733 38.2773 104.596 38.5921 104.322 38.841C104.147 38.9984 103.902 39.1165 103.587 39.1952L104.829 40.9433C104.991 41.1693 105.107 41.3102 105.175 41.3661C105.279 41.4448 105.4 41.4879 105.537 41.4956V41.6365H103.911L102.246 39.2828H101.907ZM101.907 36.75V39.0124H102.125C102.477 39.0124 102.742 38.9806 102.917 38.9171C103.092 38.8511 103.229 38.7343 103.328 38.5667C103.43 38.3966 103.48 38.1757 103.48 37.9041C103.48 37.5105 103.388 37.2198 103.202 37.0319C103.02 36.844 102.724 36.75 102.315 36.75H101.907ZM108.717 40.1664H106.893L106.676 40.6691C106.605 40.8367 106.569 40.975 106.569 41.0842C106.569 41.229 106.628 41.3356 106.744 41.4042C106.813 41.4448 106.982 41.4752 107.251 41.4956V41.6365H105.533V41.4956C105.719 41.4676 105.871 41.3915 105.99 41.267C106.11 41.1401 106.257 40.8798 106.432 40.4863L108.279 36.3654H108.352L110.214 40.6005C110.392 41.0017 110.538 41.2543 110.652 41.3584C110.738 41.4372 110.86 41.4829 111.018 41.4956V41.6365H108.519V41.4956H108.622C108.823 41.4956 108.963 41.4676 109.045 41.4118C109.101 41.3711 109.129 41.3127 109.129 41.2366C109.129 41.1909 109.121 41.1439 109.106 41.0957C109.101 41.0728 109.063 40.9776 108.991 40.81L108.717 40.1664ZM108.588 39.8845L107.818 38.1059L107.026 39.8845H108.588ZM114.773 36.354L114.815 38.0754H114.659C114.585 37.6438 114.403 37.2972 114.114 37.0357C113.827 36.7716 113.516 36.6396 113.181 36.6396C112.922 36.6396 112.716 36.7094 112.564 36.8491C112.414 36.9862 112.339 37.1449 112.339 37.3251C112.339 37.4394 112.366 37.541 112.419 37.6298C112.493 37.7492 112.611 37.8672 112.773 37.984C112.893 38.0678 113.168 38.2164 113.6 38.4296C114.204 38.7267 114.612 39.0073 114.822 39.2713C115.031 39.5354 115.135 39.8375 115.135 40.1778C115.135 40.6094 114.966 40.9814 114.628 41.2937C114.293 41.6035 113.866 41.7583 113.348 41.7583C113.186 41.7583 113.032 41.7418 112.888 41.7088C112.743 41.6758 112.561 41.6136 112.343 41.5222C112.221 41.4714 112.121 41.446 112.042 41.446C111.976 41.446 111.906 41.4714 111.833 41.5222C111.759 41.573 111.699 41.6504 111.654 41.7545H111.513V39.8045H111.654C111.765 40.353 111.98 40.7719 112.297 41.0614C112.617 41.3483 112.961 41.4917 113.329 41.4917C113.614 41.4917 113.84 41.4143 114.007 41.2594C114.177 41.1045 114.263 40.9243 114.263 40.7186C114.263 40.5967 114.229 40.4787 114.163 40.3644C114.1 40.2501 114.002 40.1422 113.87 40.0407C113.738 39.9366 113.505 39.802 113.169 39.637C112.7 39.4059 112.362 39.2091 112.156 39.0466C111.951 38.8841 111.792 38.7026 111.68 38.502C111.571 38.3014 111.517 38.0805 111.517 37.8393C111.517 37.428 111.668 37.0776 111.97 36.7881C112.272 36.4987 112.653 36.354 113.112 36.354C113.28 36.354 113.442 36.3743 113.6 36.4149C113.719 36.4454 113.864 36.5025 114.034 36.5863C114.207 36.6675 114.327 36.7082 114.396 36.7082C114.462 36.7082 114.514 36.6878 114.552 36.6472C114.59 36.6066 114.626 36.5088 114.659 36.354H114.773ZM120.371 36.472V37.8698H120.234C120.153 37.5473 120.063 37.3163 119.964 37.1766C119.865 37.0344 119.729 36.9214 119.556 36.8376C119.46 36.7919 119.291 36.7691 119.05 36.7691H118.665V40.7529C118.665 41.0169 118.679 41.182 118.707 41.248C118.738 41.314 118.795 41.3724 118.879 41.4232C118.965 41.4714 119.082 41.4956 119.229 41.4956H119.4V41.6365H116.696V41.4956H116.868C117.017 41.4956 117.138 41.4689 117.229 41.4156C117.295 41.38 117.347 41.3191 117.386 41.2328C117.413 41.1718 117.427 41.0119 117.427 40.7529V36.7691H117.054C116.706 36.7691 116.454 36.8427 116.296 36.99C116.075 37.1957 115.936 37.4889 115.877 37.8698H115.733V36.472H120.371ZM123.521 36.3997C124.344 36.3692 125.012 36.6091 125.525 37.1195C126.04 37.6298 126.298 38.2684 126.298 39.0352C126.298 39.6903 126.106 40.2667 125.723 40.7643C125.215 41.4245 124.497 41.7545 123.571 41.7545C122.641 41.7545 121.923 41.4397 121.415 40.81C121.014 40.3124 120.813 39.722 120.813 39.039C120.813 38.2722 121.074 37.6336 121.594 37.1233C122.117 36.6104 122.759 36.3692 123.521 36.3997ZM123.567 36.6434C123.095 36.6434 122.735 36.8846 122.489 37.367C122.288 37.7631 122.188 38.3319 122.188 39.0733C122.188 39.9543 122.343 40.6056 122.653 41.0271C122.869 41.3216 123.171 41.4689 123.559 41.4689C123.821 41.4689 124.039 41.4054 124.214 41.2785C124.438 41.116 124.612 40.857 124.736 40.5015C124.861 40.1435 124.923 39.6776 124.923 39.1038C124.923 38.4208 124.859 37.9104 124.732 37.5727C124.605 37.2325 124.443 36.9925 124.245 36.8529C124.049 36.7132 123.823 36.6434 123.567 36.6434ZM129.592 36.3997C130.415 36.3692 131.083 36.6091 131.595 37.1195C132.111 37.6298 132.369 38.2684 132.369 39.0352C132.369 39.6903 132.177 40.2667 131.793 40.7643C131.286 41.4245 130.568 41.7545 129.642 41.7545C128.712 41.7545 127.994 41.4397 127.486 40.81C127.085 40.3124 126.884 39.722 126.884 39.039C126.884 38.2722 127.144 37.6336 127.665 37.1233C128.188 36.6104 128.83 36.3692 129.592 36.3997ZM129.638 36.6434C129.166 36.6434 128.806 36.8846 128.56 37.367C128.359 37.7631 128.259 38.3319 128.259 39.0733C128.259 39.9543 128.414 40.6056 128.724 41.0271C128.94 41.3216 129.242 41.4689 129.63 41.4689C129.892 41.4689 130.11 41.4054 130.285 41.2785C130.509 41.116 130.683 40.857 130.807 40.5015C130.931 40.1435 130.994 39.6776 130.994 39.1038C130.994 38.4208 130.93 37.9104 130.803 37.5727C130.676 37.2325 130.514 36.9925 130.316 36.8529C130.12 36.7132 129.894 36.6434 129.638 36.6434ZM135.507 41.4956V41.6365H132.807V41.4956H132.978C133.128 41.4956 133.248 41.4689 133.34 41.4156C133.406 41.38 133.457 41.3191 133.492 41.2328C133.52 41.1718 133.534 41.0119 133.534 40.7529V37.3556C133.534 37.0916 133.52 36.9265 133.492 36.8605C133.464 36.7945 133.407 36.7374 133.321 36.6891C133.237 36.6383 133.123 36.6129 132.978 36.6129H132.807V36.472H135.507V36.6129H135.335C135.186 36.6129 135.065 36.6396 134.974 36.6929C134.908 36.7285 134.856 36.7894 134.817 36.8757C134.79 36.9367 134.776 37.0966 134.776 37.3556V40.7529C134.776 41.0169 134.79 41.182 134.817 41.248C134.848 41.314 134.905 41.3724 134.989 41.4232C135.075 41.4714 135.191 41.4956 135.335 41.4956H135.507Z" fill="white"/>
</svg>
