<svg width="158" height="43" viewBox="0 0 158 43" fill="none" xmlns="http://www.w3.org/2000/svg">
<path d="M18.4613 0.737305H26.4579L8.71394 34.084H0.717285L18.4613 0.737305Z" fill="#FE0007"/>
<path d="M28.5453 0.737305H36.5419L18.7979 34.084H10.8013L28.5453 0.737305Z" fill="#FE0007"/>
<path d="M38.6297 0.737305H147.609L129.865 34.084H20.8857L38.6297 0.737305Z" fill="black"/>
<path d="M149.696 0.737305H157.693L139.949 34.084H131.952L149.696 0.737305Z" fill="#0A27F4"/>
<path d="M68.146 4.16553H76.2805V30.4993H68.146V4.16553Z" fill="white"/>
<path d="M90.2057 4.16553H101.206L86.5128 16.712H76.5563L90.2057 4.16553Z" fill="white"/>
<path d="M90.2057 29.2584H101.206L86.5128 16.712H76.5563L90.2057 29.2584Z" fill="white"/>
<path d="M104.544 4.16553H112.679V30.4993H104.544V4.16553Z" fill="white"/>
<path d="M128.622 4.16553H112.679V10.4387H125.593C127.148 10.4387 128.409 11.6997 128.409 13.2551C128.409 14.8105 127.148 16.0715 125.593 16.0715H114.529L120.567 22.0909H128.622C132.657 22.0909 135.929 18.8198 135.929 14.7846V11.4719C135.929 7.43669 132.657 4.16553 128.622 4.16553Z" fill="white"/>
<path d="M40.8718 4.16553H50.0667L36.3497 30.4993H27.1548L40.8718 4.16553Z" fill="white"/>
<path d="M52.177 4.16553H42.9821L56.6991 30.4993H65.894L52.177 4.16553Z" fill="white"/>
<path d="M41.9334 19.7541H44.3829L41.1904 25.9008H38.7409L41.9334 19.7541Z" fill="white"/>
<path d="M44.6525 19.7539H47.102L43.9095 25.9007H41.46L44.6525 19.7539Z" fill="#FE0007"/>
<path d="M47.3712 19.7539H49.8207L46.6282 25.9007H44.1787L47.3712 19.7539Z" fill="#0A27F4"/>
<path d="M22.9163 39.6139H21.092L20.8749 40.1166C20.8038 40.2842 20.7683 40.4226 20.7683 40.5317C20.7683 40.6765 20.8267 40.7831 20.9435 40.8517C21.012 40.8923 21.1809 40.9228 21.45 40.9431V41.084H19.7323V40.9431C19.9177 40.9151 20.07 40.839 20.1894 40.7146C20.3087 40.5876 20.456 40.3273 20.6312 39.9338L22.4783 35.8129H22.5507L24.4131 40.048C24.5908 40.4492 24.7368 40.7019 24.8511 40.806C24.9374 40.8847 25.0593 40.9304 25.2167 40.9431V41.084H22.7183V40.9431H22.8211C23.0217 40.9431 23.1626 40.9151 23.2438 40.8593C23.2997 40.8187 23.3276 40.7603 23.3276 40.6841C23.3276 40.6384 23.32 40.5914 23.3048 40.5432C23.2997 40.5203 23.2616 40.4251 23.1905 40.2575L22.9163 39.6139ZM22.7868 39.332L22.0175 37.5534L21.2253 39.332H22.7868ZM27.38 38.7303V40.1775C27.38 40.4568 27.3965 40.6333 27.4295 40.7069C27.465 40.778 27.526 40.8352 27.6123 40.8783C27.6986 40.9215 27.8599 40.9431 28.096 40.9431V41.084H25.4528V40.9431C25.6915 40.9431 25.8527 40.9215 25.9365 40.8783C26.0229 40.8326 26.0825 40.7742 26.1155 40.7031C26.1511 40.632 26.1688 40.4568 26.1688 40.1775V36.826C26.1688 36.5467 26.1511 36.3715 26.1155 36.3004C26.0825 36.2268 26.0229 36.1684 25.9365 36.1252C25.8502 36.082 25.689 36.0604 25.4528 36.0604V35.9195H27.8522C28.4769 35.9195 28.9339 35.9627 29.2233 36.049C29.5128 36.1354 29.7489 36.2953 29.9317 36.5289C30.1146 36.76 30.206 37.0316 30.206 37.3439C30.206 37.7248 30.0688 38.0396 29.7946 38.2885C29.6194 38.4459 29.3744 38.564 29.0596 38.6427L30.3012 40.3908C30.4637 40.6168 30.5792 40.7577 30.6478 40.8136C30.7519 40.8923 30.8725 40.9354 31.0096 40.9431V41.084H29.3833L27.7189 38.7303H27.38ZM27.38 36.1976V38.4599H27.5971C27.95 38.4599 28.2141 38.4281 28.3893 38.3646C28.5645 38.2986 28.7016 38.1818 28.8006 38.0143C28.9021 37.8441 28.9529 37.6232 28.9529 37.3516C28.9529 36.958 28.8603 36.6673 28.6749 36.4794C28.4921 36.2915 28.1963 36.1976 27.7875 36.1976H27.38ZM34.662 39.3244L36.0636 35.9195H38.1659V36.0604H37.9983C37.846 36.0604 37.7241 36.0871 37.6327 36.1404C37.5692 36.176 37.5185 36.2356 37.4804 36.3194C37.4524 36.3804 37.4385 36.5391 37.4385 36.7955V40.2004C37.4385 40.4645 37.4524 40.6295 37.4804 40.6955C37.5083 40.7615 37.5654 40.8199 37.6518 40.8707C37.7381 40.9189 37.8536 40.9431 37.9983 40.9431H38.1659V41.084H35.4694V40.9431H35.637C35.7894 40.9431 35.9112 40.9164 36.0026 40.8631C36.0661 40.8275 36.1169 40.7666 36.155 40.6803C36.1829 40.6193 36.1969 40.4594 36.1969 40.2004V36.3728L34.2164 41.084H34.125L32.1141 36.407V40.0442C32.1141 40.2981 32.1204 40.4543 32.1331 40.5127C32.1661 40.6396 32.2372 40.7437 32.3464 40.825C32.4581 40.9037 32.632 40.9431 32.8682 40.9431V41.084H31.101V40.9431H31.1543C31.2686 40.9456 31.3752 40.9278 31.4742 40.8897C31.5732 40.8491 31.6481 40.7958 31.6989 40.7298C31.7497 40.6638 31.7891 40.5711 31.817 40.4518C31.8221 40.4238 31.8246 40.2943 31.8246 40.0633V36.7955C31.8246 36.534 31.8106 36.3715 31.7827 36.308C31.7548 36.242 31.6977 36.1849 31.6113 36.1366C31.525 36.0858 31.4095 36.0604 31.2647 36.0604H31.101V35.9195H33.2109L34.662 39.3244ZM41.5556 39.6139H39.7312L39.5142 40.1166C39.4431 40.2842 39.4075 40.4226 39.4075 40.5317C39.4075 40.6765 39.4659 40.7831 39.5827 40.8517C39.6513 40.8923 39.8201 40.9228 40.0893 40.9431V41.084H38.3716V40.9431C38.5569 40.9151 38.7093 40.839 38.8286 40.7146C38.9479 40.5876 39.0952 40.3273 39.2704 39.9338L41.1176 35.8129H41.1899L43.0523 40.048C43.2301 40.4492 43.3761 40.7019 43.4903 40.806C43.5767 40.8847 43.6985 40.9304 43.856 40.9431V41.084H41.3575V40.9431H41.4604C41.6609 40.9431 41.8019 40.9151 41.8831 40.8593C41.939 40.8187 41.9669 40.7603 41.9669 40.6841C41.9669 40.6384 41.9593 40.5914 41.944 40.5432C41.939 40.5203 41.9009 40.4251 41.8298 40.2575L41.5556 39.6139ZM41.4261 39.332L40.6567 37.5534L39.8646 39.332H41.4261ZM45.8897 35.9195L48.4377 39.1226V36.9021C48.4377 36.5924 48.3933 36.3829 48.3044 36.2737C48.1825 36.1265 47.9781 36.0554 47.6912 36.0604V35.9195H49.3975V36.0604C49.1791 36.0884 49.0318 36.1252 48.9557 36.1709C48.882 36.2141 48.8236 36.2864 48.7805 36.388C48.7398 36.487 48.7195 36.6584 48.7195 36.9021V41.2021H48.59L45.0976 36.9021V40.1852C45.0976 40.4822 45.1648 40.6828 45.2994 40.7869C45.4365 40.891 45.5927 40.9431 45.7679 40.9431H45.8897V41.084H44.0578V40.9431C44.3422 40.9405 44.5402 40.8821 44.652 40.7679C44.7637 40.6536 44.8195 40.4594 44.8195 40.1852V36.5403L44.7091 36.4032C44.5999 36.2661 44.5034 36.176 44.4196 36.1328C44.3358 36.0896 44.2152 36.0655 44.0578 36.0604V35.9195H45.8897ZM54.7828 37.8962L56.5995 40.1699C56.856 40.4898 57.0769 40.7069 57.2622 40.8212C57.3968 40.9024 57.539 40.9431 57.6888 40.9431V41.084H54.9999V40.9431C55.17 40.9278 55.2792 40.9012 55.3274 40.8631C55.3782 40.825 55.4036 40.778 55.4036 40.7222C55.4036 40.6155 55.2868 40.4149 55.0532 40.1204L53.8688 38.6312L53.6783 38.7912V40.2004C53.6783 40.4695 53.6936 40.6371 53.724 40.7031C53.7545 40.7691 53.8129 40.8263 53.8992 40.8745C53.9855 40.9202 54.1239 40.9431 54.3144 40.9431V41.084H51.7093V40.9431H51.8807C52.0305 40.9431 52.1511 40.9164 52.2425 40.8631C52.3085 40.8275 52.3593 40.7666 52.3948 40.6803C52.4228 40.6193 52.4367 40.4594 52.4367 40.2004V36.8031C52.4367 36.5391 52.4228 36.374 52.3948 36.308C52.3669 36.242 52.3098 36.1849 52.2234 36.1366C52.1396 36.0858 52.0254 36.0604 51.8807 36.0604H51.7093V35.9195H54.2801V36.0604C54.1049 36.0604 53.9716 36.0858 53.8802 36.1366C53.8142 36.1722 53.7621 36.2318 53.724 36.3156C53.6936 36.3791 53.6783 36.5416 53.6783 36.8031V38.4104L55.594 36.8603C55.8606 36.6444 55.9939 36.4718 55.9939 36.3423C55.9939 36.2458 55.9394 36.1696 55.8302 36.1138C55.7743 36.0858 55.6359 36.0681 55.415 36.0604V35.9195H57.4298V36.0604C57.2495 36.0731 57.1073 36.1062 57.0032 36.1595C56.9017 36.2103 56.6655 36.3854 56.2948 36.6851L54.7828 37.8962ZM59.7378 38.6008V40.2004C59.7378 40.4645 59.7518 40.6295 59.7797 40.6955C59.8102 40.7615 59.8673 40.8199 59.9511 40.8707C60.0374 40.9189 60.1529 40.9431 60.2977 40.9431H60.469V41.084H57.7688V40.9431H57.9401C58.0899 40.9431 58.2105 40.9164 58.302 40.8631C58.368 40.8275 58.4188 40.7666 58.4543 40.6803C58.4822 40.6193 58.4962 40.4594 58.4962 40.2004V36.8031C58.4962 36.5391 58.4822 36.374 58.4543 36.308C58.4264 36.242 58.3692 36.1849 58.2829 36.1366C58.1991 36.0858 58.0849 36.0604 57.9401 36.0604H57.7688V35.9195H60.469V36.0604H60.2977C60.1479 36.0604 60.0272 36.0871 59.9358 36.1404C59.8698 36.176 59.8178 36.2369 59.7797 36.3232C59.7518 36.3842 59.7378 36.5441 59.7378 36.8031V38.2656H61.5621V36.8031C61.5621 36.5391 61.5481 36.374 61.5202 36.308C61.4923 36.242 61.4352 36.1849 61.3488 36.1366C61.2625 36.0858 61.147 36.0604 61.0022 36.0604H60.8347V35.9195H63.5312V36.0604H63.3636C63.2112 36.0604 63.0906 36.0871 63.0018 36.1404C62.9357 36.176 62.8837 36.2369 62.8456 36.3232C62.8177 36.3842 62.8037 36.5441 62.8037 36.8031V40.2004C62.8037 40.4645 62.8177 40.6295 62.8456 40.6955C62.8735 40.7615 62.9307 40.8199 63.017 40.8707C63.1033 40.9189 63.2188 40.9431 63.3636 40.9431H63.5312V41.084H60.8347V40.9431H61.0022C61.1546 40.9431 61.2752 40.9164 61.3641 40.8631C61.4301 40.8275 61.4821 40.7666 61.5202 40.6803C61.5481 40.6193 61.5621 40.4594 61.5621 40.2004V38.6008H59.7378ZM66.6885 35.8472C67.5111 35.8167 68.1789 36.0566 68.6918 36.567C69.2072 37.0773 69.4649 37.7159 69.4649 38.4827C69.4649 39.1378 69.2732 39.7142 68.8898 40.2118C68.382 40.872 67.6647 41.2021 66.738 41.2021C65.8087 41.2021 65.0901 40.8872 64.5823 40.2575C64.1812 39.7599 63.9806 39.1695 63.9806 38.4865C63.9806 37.7197 64.2408 37.0812 64.7613 36.5708C65.2844 36.0579 65.9268 35.8167 66.6885 35.8472ZM66.7342 36.0909C66.2619 36.0909 65.9026 36.3321 65.6563 36.8146C65.4558 37.2106 65.3555 37.7794 65.3555 38.5208C65.3555 39.4019 65.5104 40.0531 65.8201 40.4746C66.0359 40.7691 66.3381 40.9164 66.7266 40.9164C66.9881 40.9164 67.2064 40.8529 67.3816 40.726C67.6051 40.5635 67.779 40.3045 67.9034 39.949C68.0278 39.591 68.09 39.1251 68.09 38.5513C68.09 37.8683 68.0266 37.3579 67.8996 37.0202C67.7727 36.68 67.6102 36.44 67.4121 36.3004C67.2166 36.1607 66.9906 36.0909 66.7342 36.0909ZM69.8496 41.084V40.9431H70.021C70.1708 40.9431 70.2851 40.9202 70.3638 40.8745C70.445 40.8263 70.5047 40.7615 70.5428 40.6803C70.5656 40.627 70.5771 40.467 70.5771 40.2004V36.8031C70.5771 36.5391 70.5631 36.374 70.5352 36.308C70.5072 36.242 70.4501 36.1849 70.3638 36.1366C70.28 36.0858 70.1657 36.0604 70.021 36.0604H69.8496V35.9195H72.1614C72.7784 35.9195 73.2748 36.0033 73.6506 36.1709C74.1102 36.3766 74.458 36.6876 74.6941 37.104C74.9328 37.5204 75.0521 37.9914 75.0521 38.517C75.0521 38.8801 74.9937 39.2152 74.877 39.5225C74.7602 39.8271 74.6091 40.0798 74.4237 40.2804C74.2384 40.4784 74.0238 40.6384 73.7801 40.7603C73.5389 40.8796 73.2431 40.9723 72.8927 41.0383C72.7378 41.0687 72.494 41.084 72.1614 41.084H69.8496ZM71.8187 36.2128V40.2423C71.8187 40.4556 71.8288 40.5863 71.8491 40.6346C71.8694 40.6828 71.9037 40.7196 71.952 40.745C72.0205 40.7831 72.1195 40.8021 72.249 40.8021C72.673 40.8021 72.9968 40.6574 73.2202 40.368C73.5249 39.977 73.6772 39.3701 73.6772 38.5475C73.6772 37.8848 73.5731 37.3554 73.3649 36.9593C73.1999 36.6495 72.9879 36.4388 72.7289 36.3271C72.5461 36.2483 72.2427 36.2103 71.8187 36.2128ZM77.4554 38.7303V40.1775C77.4554 40.4568 77.4719 40.6333 77.5049 40.7069C77.5404 40.778 77.6014 40.8352 77.6877 40.8783C77.774 40.9215 77.9353 40.9431 78.1714 40.9431V41.084H75.5282V40.9431C75.7669 40.9431 75.9281 40.9215 76.0119 40.8783C76.0982 40.8326 76.1579 40.7742 76.1909 40.7031C76.2265 40.632 76.2442 40.4568 76.2442 40.1775V36.826C76.2442 36.5467 76.2265 36.3715 76.1909 36.3004C76.1579 36.2268 76.0982 36.1684 76.0119 36.1252C75.9256 36.082 75.7644 36.0604 75.5282 36.0604V35.9195H77.9276C78.5522 35.9195 79.0093 35.9627 79.2987 36.049C79.5882 36.1354 79.8243 36.2953 80.0071 36.5289C80.1899 36.76 80.2813 37.0316 80.2813 37.3439C80.2813 37.7248 80.1442 38.0396 79.87 38.2885C79.6948 38.4459 79.4498 38.564 79.135 38.6427L80.3766 40.3908C80.5391 40.6168 80.6546 40.7577 80.7231 40.8136C80.8272 40.8923 80.9479 40.9354 81.085 40.9431V41.084H79.4587L77.7943 38.7303H77.4554ZM77.4554 36.1976V38.4599H77.6725C78.0254 38.4599 78.2895 38.4281 78.4646 38.3646C78.6398 38.2986 78.777 38.1818 78.876 38.0143C78.9775 37.8441 79.0283 37.6232 79.0283 37.3516C79.0283 36.958 78.9356 36.6673 78.7503 36.4794C78.5675 36.2915 78.2717 36.1976 77.8629 36.1976H77.4554ZM84.0328 35.8472C84.8555 35.8167 85.5232 36.0566 86.0361 36.567C86.5516 37.0773 86.8093 37.7159 86.8093 38.4827C86.8093 39.1378 86.6176 39.7142 86.2342 40.2118C85.7264 40.872 85.0091 41.2021 84.0823 41.2021C83.153 41.2021 82.4345 40.8872 81.9267 40.2575C81.5255 39.7599 81.3249 39.1695 81.3249 38.4865C81.3249 37.7197 81.5852 37.0812 82.1057 36.5708C82.6287 36.0579 83.2711 35.8167 84.0328 35.8472ZM84.0785 36.0909C83.6062 36.0909 83.247 36.3321 83.0007 36.8146C82.8001 37.2106 82.6998 37.7794 82.6998 38.5208C82.6998 39.4019 82.8547 40.0531 83.1645 40.4746C83.3803 40.7691 83.6824 40.9164 84.0709 40.9164C84.3324 40.9164 84.5508 40.8529 84.726 40.726C84.9494 40.5635 85.1233 40.3045 85.2478 39.949C85.3722 39.591 85.4344 39.1251 85.4344 38.5513C85.4344 37.8683 85.3709 37.3579 85.2439 37.0202C85.117 36.68 84.9545 36.44 84.7564 36.3004C84.5609 36.1607 84.335 36.0909 84.0785 36.0909ZM91.1473 38.7455V40.1775C91.1473 40.4568 91.1638 40.6333 91.1968 40.7069C91.2323 40.778 91.2933 40.8352 91.3796 40.8783C91.4685 40.9215 91.6297 40.9431 91.8633 40.9431V41.084H89.2392V40.9431C89.4778 40.9431 89.6391 40.9215 89.7229 40.8783C89.8092 40.8326 89.8688 40.7742 89.9019 40.7031C89.9374 40.632 89.9552 40.4568 89.9552 40.1775V36.826C89.9552 36.5467 89.9374 36.3715 89.9019 36.3004C89.8688 36.2268 89.8092 36.1684 89.7229 36.1252C89.6365 36.082 89.4753 36.0604 89.2392 36.0604V35.9195H91.49C92.2314 35.9195 92.7634 36.0516 93.0858 36.3156C93.4083 36.5797 93.5695 36.9098 93.5695 37.3059C93.5695 37.641 93.4654 37.9279 93.2572 38.1666C93.049 38.4053 92.7621 38.5678 92.3965 38.6541C92.1502 38.715 91.7338 38.7455 91.1473 38.7455ZM91.1473 36.2166V38.4484C91.2311 38.4535 91.2945 38.4561 91.3377 38.4561C91.6475 38.4561 91.8861 38.3646 92.0537 38.1818C92.2213 37.9965 92.3051 37.7108 92.3051 37.3249C92.3051 36.9415 92.2213 36.6609 92.0537 36.4832C91.8861 36.3055 91.636 36.2166 91.3034 36.2166H91.1473ZM96.4755 39.6139H94.6512L94.4341 40.1166C94.363 40.2842 94.3274 40.4226 94.3274 40.5317C94.3274 40.6765 94.3858 40.7831 94.5026 40.8517C94.5712 40.8923 94.74 40.9228 95.0092 40.9431V41.084H93.2915V40.9431C93.4769 40.9151 93.6292 40.839 93.7485 40.7146C93.8679 40.5876 94.0151 40.3273 94.1903 39.9338L96.0375 35.8129H96.1099L97.9723 40.048C98.15 40.4492 98.296 40.7019 98.4103 40.806C98.4966 40.8847 98.6185 40.9304 98.7759 40.9431V41.084H96.2774V40.9431H96.3803C96.5809 40.9431 96.7218 40.9151 96.803 40.8593C96.8589 40.8187 96.8868 40.7603 96.8868 40.6841C96.8868 40.6384 96.8792 40.5914 96.864 40.5432C96.8589 40.5203 96.8208 40.4251 96.7497 40.2575L96.4755 39.6139ZM96.346 39.332L95.5767 37.5534L94.7845 39.332H96.346ZM100.939 38.7303V40.1775C100.939 40.4568 100.956 40.6333 100.989 40.7069C101.024 40.778 101.085 40.8352 101.171 40.8783C101.258 40.9215 101.419 40.9431 101.655 40.9431V41.084H99.012V40.9431C99.2507 40.9431 99.4119 40.9215 99.4957 40.8783C99.582 40.8326 99.6417 40.7742 99.6747 40.7031C99.7103 40.632 99.728 40.4568 99.728 40.1775V36.826C99.728 36.5467 99.7103 36.3715 99.6747 36.3004C99.6417 36.2268 99.582 36.1684 99.4957 36.1252C99.4094 36.082 99.2481 36.0604 99.012 36.0604V35.9195H101.411C102.036 35.9195 102.493 35.9627 102.783 36.049C103.072 36.1354 103.308 36.2953 103.491 36.5289C103.674 36.76 103.765 37.0316 103.765 37.3439C103.765 37.7248 103.628 38.0396 103.354 38.2885C103.179 38.4459 102.934 38.564 102.619 38.6427L103.86 40.3908C104.023 40.6168 104.138 40.7577 104.207 40.8136C104.311 40.8923 104.432 40.9354 104.569 40.9431V41.084H102.942L101.278 38.7303H100.939ZM100.939 36.1976V38.4599H101.156C101.509 38.4599 101.773 38.4281 101.948 38.3646C102.124 38.2986 102.261 38.1818 102.36 38.0143C102.461 37.8441 102.512 37.6232 102.512 37.3516C102.512 36.958 102.419 36.6673 102.234 36.4794C102.051 36.2915 101.755 36.1976 101.347 36.1976H100.939ZM107.749 39.6139H105.925L105.708 40.1166C105.636 40.2842 105.601 40.4226 105.601 40.5317C105.601 40.6765 105.659 40.7831 105.776 40.8517C105.845 40.8923 106.013 40.9228 106.283 40.9431V41.084H104.565V40.9431C104.75 40.9151 104.903 40.839 105.022 40.7146C105.141 40.5876 105.289 40.3273 105.464 39.9338L107.311 35.8129H107.383L109.246 40.048C109.423 40.4492 109.569 40.7019 109.684 40.806C109.77 40.8847 109.892 40.9304 110.049 40.9431V41.084H107.551V40.9431H107.654C107.854 40.9431 107.995 40.9151 108.076 40.8593C108.132 40.8187 108.16 40.7603 108.16 40.6841C108.16 40.6384 108.153 40.5914 108.137 40.5432C108.132 40.5203 108.094 40.4251 108.023 40.2575L107.749 39.6139ZM107.619 39.332L106.85 37.5534L106.058 39.332H107.619ZM113.805 35.8015L113.846 37.5229H113.69C113.617 37.0913 113.435 36.7447 113.146 36.4832C112.859 36.2191 112.548 36.0871 112.213 36.0871C111.954 36.0871 111.748 36.1569 111.596 36.2966C111.446 36.4337 111.371 36.5924 111.371 36.7727C111.371 36.8869 111.398 36.9885 111.451 37.0773C111.525 37.1967 111.643 37.3147 111.805 37.4315C111.924 37.5153 112.2 37.6639 112.632 37.8771C113.236 38.1742 113.643 38.4548 113.854 38.7188C114.062 38.9829 114.166 39.2851 114.166 39.6253C114.166 40.0569 113.998 40.4289 113.66 40.7412C113.325 41.051 112.898 41.2059 112.38 41.2059C112.218 41.2059 112.064 41.1894 111.919 41.1563C111.775 41.1233 111.593 41.0611 111.375 40.9697C111.253 40.9189 111.153 40.8936 111.074 40.8936C111.008 40.8936 110.938 40.9189 110.864 40.9697C110.791 41.0205 110.731 41.0979 110.685 41.2021H110.544V39.2521H110.685C110.797 39.8005 111.012 40.2194 111.329 40.5089C111.649 40.7958 111.993 40.9393 112.361 40.9393C112.646 40.9393 112.871 40.8618 113.039 40.7069C113.209 40.5521 113.294 40.3718 113.294 40.1661C113.294 40.0442 113.261 39.9262 113.195 39.8119C113.132 39.6977 113.034 39.5897 112.902 39.4882C112.77 39.3841 112.536 39.2495 112.201 39.0845C111.731 38.8534 111.394 38.6566 111.188 38.4941C110.982 38.3316 110.824 38.1501 110.712 37.9495C110.603 37.7489 110.548 37.528 110.548 37.2868C110.548 36.8755 110.699 36.5251 111.001 36.2356C111.304 35.9462 111.684 35.8015 112.144 35.8015C112.312 35.8015 112.474 35.8218 112.632 35.8624C112.751 35.8929 112.896 35.95 113.066 36.0338C113.238 36.115 113.359 36.1557 113.428 36.1557C113.494 36.1557 113.546 36.1354 113.584 36.0947C113.622 36.0541 113.657 35.9563 113.69 35.8015H113.805ZM119.403 35.9195V37.3173H119.266C119.185 36.9948 119.095 36.7638 118.996 36.6241C118.897 36.4819 118.761 36.3689 118.588 36.2852C118.492 36.2395 118.323 36.2166 118.082 36.2166H117.697V40.2004C117.697 40.4645 117.711 40.6295 117.739 40.6955C117.769 40.7615 117.826 40.8199 117.91 40.8707C117.997 40.9189 118.113 40.9431 118.261 40.9431H118.432V41.084H115.728V40.9431H115.899C116.049 40.9431 116.17 40.9164 116.261 40.8631C116.327 40.8275 116.379 40.7666 116.417 40.6803C116.445 40.6193 116.459 40.4594 116.459 40.2004V36.2166H116.086C115.738 36.2166 115.485 36.2902 115.328 36.4375C115.107 36.6432 114.967 36.9364 114.909 37.3173H114.764V35.9195H119.403ZM122.553 35.8472C123.376 35.8167 124.043 36.0566 124.556 36.567C125.072 37.0773 125.329 37.7159 125.329 38.4827C125.329 39.1378 125.138 39.7142 124.754 40.2118C124.246 40.872 123.529 41.2021 122.602 41.2021C121.673 41.2021 120.955 40.8872 120.447 40.2575C120.046 39.7599 119.845 39.1695 119.845 38.4865C119.845 37.7197 120.105 37.0812 120.626 36.5708C121.149 36.0579 121.791 35.8167 122.553 35.8472ZM122.599 36.0909C122.126 36.0909 121.767 36.3321 121.521 36.8146C121.32 37.2106 121.22 37.7794 121.22 38.5208C121.22 39.4019 121.375 40.0531 121.685 40.4746C121.9 40.7691 122.203 40.9164 122.591 40.9164C122.853 40.9164 123.071 40.8529 123.246 40.726C123.47 40.5635 123.643 40.3045 123.768 39.949C123.892 39.591 123.954 39.1251 123.954 38.5513C123.954 37.8683 123.891 37.3579 123.764 37.0202C123.637 36.68 123.475 36.44 123.277 36.3004C123.081 36.1607 122.855 36.0909 122.599 36.0909ZM128.624 35.8472C129.446 35.8167 130.114 36.0566 130.627 36.567C131.143 37.0773 131.4 37.7159 131.4 38.4827C131.4 39.1378 131.209 39.7142 130.825 40.2118C130.317 40.872 129.6 41.2021 128.673 41.2021C127.744 41.2021 127.025 40.8872 126.518 40.2575C126.117 39.7599 125.916 39.1695 125.916 38.4865C125.916 37.7197 126.176 37.0812 126.697 36.5708C127.22 36.0579 127.862 35.8167 128.624 35.8472ZM128.67 36.0909C128.197 36.0909 127.838 36.3321 127.592 36.8146C127.391 37.2106 127.291 37.7794 127.291 38.5208C127.291 39.4019 127.446 40.0531 127.755 40.4746C127.971 40.7691 128.273 40.9164 128.662 40.9164C128.923 40.9164 129.142 40.8529 129.317 40.726C129.54 40.5635 129.714 40.3045 129.839 39.949C129.963 39.591 130.025 39.1251 130.025 38.5513C130.025 37.8683 129.962 37.3579 129.835 37.0202C129.708 36.68 129.546 36.44 129.347 36.3004C129.152 36.1607 128.926 36.0909 128.67 36.0909ZM134.539 40.9431V41.084H131.838V40.9431H132.01C132.159 40.9431 132.28 40.9164 132.371 40.8631C132.438 40.8275 132.488 40.7666 132.524 40.6803C132.552 40.6193 132.566 40.4594 132.566 40.2004V36.8031C132.566 36.5391 132.552 36.374 132.524 36.308C132.496 36.242 132.439 36.1849 132.352 36.1366C132.269 36.0858 132.154 36.0604 132.01 36.0604H131.838V35.9195H134.539V36.0604H134.367C134.217 36.0604 134.097 36.0871 134.005 36.1404C133.939 36.176 133.887 36.2369 133.849 36.3232C133.821 36.3842 133.807 36.5441 133.807 36.8031V40.2004C133.807 40.4645 133.821 40.6295 133.849 40.6955C133.88 40.7615 133.937 40.8199 134.021 40.8707C134.107 40.9189 134.222 40.9431 134.367 40.9431H134.539Z" fill="black"/>
</svg>
