<svg width="43" height="92" viewBox="0 0 43 92" fill="none" xmlns="http://www.w3.org/2000/svg">
<path d="M32.3287 5.88708C32.3287 8.8326 34.7166 11.2204 37.6621 11.2204C40.6076 11.2204 42.9954 8.8326 42.9954 5.88708C42.9954 2.94157 40.6076 0.553751 37.6621 0.553751C34.7166 0.553751 32.3287 2.94157 32.3287 5.88708ZM0.0705082 90.1531C0.0304255 90.7039 0.444467 91.1829 0.995295 91.223L9.97156 91.8762C10.5224 91.9163 11.0014 91.5022 11.0415 90.9514C11.0816 90.4006 10.6675 89.9216 10.1167 89.8815L2.13781 89.3009L2.71842 81.322C2.7585 80.7711 2.34446 80.2921 1.79363 80.252C1.2428 80.2119 0.763777 80.626 0.723694 81.1768L0.0705082 90.1531ZM36.6628 5.92637C37.8984 37.3529 24.0954 69.0004 0.413948 89.4691L1.72179 90.9822C25.8624 70.1167 39.9208 37.8839 38.6613 5.8478L36.6628 5.92637Z" fill="#FFCC49"/>
</svg>
