<svg width="21" height="20" viewBox="0 0 21 20" fill="none" xmlns="http://www.w3.org/2000/svg">
<path d="M18.9533 9.13602L17.2999 7.60002L15.8333 4.66669C15.7073 4.46187 15.5307 4.29295 15.3206 4.17618C15.1104 4.05941 14.8737 3.99875 14.6333 4.00002H6.36659C6.12615 3.99875 5.88945 4.05941 5.67927 4.17618C5.46909 4.29295 5.29252 4.46187 5.16659 4.66669L3.69992 7.60002L2.04659 9.13602C1.97923 9.19849 1.92551 9.2742 1.8888 9.3584C1.85209 9.44261 1.83318 9.53349 1.83325 9.62535V15.3334C1.83325 15.5102 1.90349 15.6797 2.02851 15.8048C2.15354 15.9298 2.32311 16 2.49992 16H5.16659C5.43325 16 5.83325 15.7334 5.83325 15.4667V14.6667H15.1666V15.3334C15.1666 15.6 15.4333 16 15.6999 16H18.4999C18.6767 16 18.8463 15.9298 18.9713 15.8048C19.0963 15.6797 19.1666 15.5102 19.1666 15.3334V9.62535C19.1667 9.53349 19.1477 9.44261 19.111 9.3584C19.0743 9.2742 19.0206 9.19849 18.9533 9.13602ZM6.49992 5.33335H14.4999L15.8333 8.00002H5.16659L6.49992 5.33335ZM7.16659 11.4667C7.16659 11.7334 6.76659 12 6.49992 12H3.69992C3.43325 12 3.16659 11.6 3.16659 11.3334V9.86669C3.29992 9.46669 3.56659 9.20002 3.96659 9.33335L6.63325 9.86669C6.89992 9.86669 7.16659 10.2667 7.16659 10.5334V11.4667ZM17.8333 11.3334C17.8333 11.6 17.5666 12 17.2999 12H14.4999C14.2333 12 13.8333 11.7334 13.8333 11.4667V10.5334C13.8333 10.2667 14.0999 9.86669 14.3666 9.86669L17.0333 9.33335C17.4333 9.20002 17.6999 9.46669 17.8333 9.86669V11.3334Z" fill="white"/>
</svg>
