<svg width="26" height="25" viewBox="0 0 26 25" fill="none" xmlns="http://www.w3.org/2000/svg">
<path d="M10.9819 3.75976C10.9407 3.60893 10.8418 3.48036 10.7066 3.4018C10.5714 3.32323 10.4107 3.30098 10.2593 3.33984C8.83606 3.72238 7.53838 4.47226 6.49629 5.51435C5.4542 6.55644 4.70431 7.85412 4.32178 9.27734C4.3012 9.35237 4.29577 9.43075 4.30581 9.5079C4.31584 9.58506 4.34114 9.65944 4.38023 9.72671C4.41932 9.79398 4.47141 9.85279 4.53348 9.89971C4.59554 9.94663 4.66632 9.98072 4.7417 10L4.88818 10.0195C5.01793 10.0193 5.14393 9.97606 5.24644 9.89653C5.34894 9.817 5.42216 9.7057 5.45459 9.58007C5.78577 8.35688 6.43154 7.24175 7.32761 6.34567C8.22369 5.4496 9.33882 4.80384 10.562 4.47265C10.7107 4.43137 10.8376 4.33398 10.9159 4.201C10.9943 4.06803 11.0179 3.90984 10.9819 3.75976ZM11.3726 7.49023C10.6788 7.68014 10.0466 8.04747 9.53798 8.55605C9.02941 9.06463 8.66208 9.69691 8.47217 10.3906C8.43973 10.5162 8.36652 10.6275 8.26402 10.7071C8.16151 10.7866 8.0355 10.8299 7.90576 10.8301L7.75928 10.8105C7.60982 10.7671 7.48282 10.6679 7.40462 10.5333C7.32643 10.3987 7.30306 10.2392 7.33936 10.0879C7.58064 9.19416 8.0521 8.37934 8.70669 7.72475C9.36127 7.07016 10.1761 6.5987 11.0698 6.35742C11.2212 6.32112 11.3807 6.3445 11.5152 6.42269C11.6498 6.50088 11.7491 6.62788 11.7925 6.77734C11.8311 6.92755 11.8086 7.08694 11.7298 7.22057C11.6511 7.3542 11.5226 7.45117 11.3726 7.49023ZM3.56006 17.0703C3.72376 18.3433 4.34529 19.5132 5.30855 20.3615C6.27181 21.2097 7.51093 21.6783 8.79443 21.6797C16.4409 21.6797 22.6616 15.459 22.6616 7.8125C22.6602 6.52899 22.1917 5.28988 21.3434 4.32661C20.4952 3.36335 19.3253 2.74182 18.0522 2.57812C17.7593 2.54383 17.4632 2.60518 17.208 2.75302C16.9528 2.90086 16.7522 3.12726 16.6362 3.39843L14.6733 7.97851C14.5843 8.18574 14.5475 8.41167 14.5663 8.63644C14.585 8.86121 14.6586 9.07794 14.7808 9.26758L16.4116 11.748C16.4277 11.776 16.437 11.8074 16.4387 11.8396C16.4404 11.8719 16.4345 11.9041 16.4214 11.9336C15.6713 13.4716 14.4263 14.7131 12.8862 15.459C12.8563 15.4724 12.8234 15.4777 12.7908 15.4742C12.7582 15.4708 12.7271 15.4588 12.7007 15.4395L10.2495 13.8086C10.0617 13.6824 9.84525 13.6056 9.61997 13.5851C9.39469 13.5646 9.16788 13.6012 8.96045 13.6914L4.38037 15.6543C4.1092 15.7703 3.8828 15.9708 3.73496 16.226C3.58712 16.4812 3.52577 16.7774 3.56006 17.0703ZM4.72217 16.9238C4.71882 16.8831 4.72832 16.8424 4.74934 16.8073C4.77037 16.7723 4.80185 16.7447 4.83936 16.7285L9.41943 14.7656C9.4497 14.754 9.4823 14.7497 9.51456 14.7531C9.54681 14.7565 9.5778 14.7675 9.60498 14.7852L12.0464 16.416C12.2441 16.5459 12.4716 16.623 12.7075 16.6401C12.9434 16.6572 13.1797 16.6137 13.394 16.5137C15.1704 15.6489 16.6071 14.2157 17.4761 12.4414C17.5776 12.2296 17.6228 11.9953 17.6074 11.7609C17.592 11.5266 17.5165 11.3002 17.3882 11.1035L15.7671 8.62304C15.7477 8.5966 15.7357 8.5655 15.7323 8.5329C15.7289 8.50031 15.7341 8.46739 15.7476 8.4375L17.7104 3.85742C17.7254 3.82309 17.75 3.79378 17.7811 3.77301C17.8123 3.75223 17.8488 3.74085 17.8862 3.74023H17.9058C18.8949 3.87024 19.8032 4.35462 20.4623 5.1035C21.1214 5.85238 21.4864 6.8149 21.4897 7.8125C21.4872 11.1787 20.1488 14.4063 17.7685 16.7866C15.3882 19.1669 12.1606 20.5052 8.79443 20.5078C7.79684 20.5045 6.83431 20.1394 6.08544 19.4804C5.33656 18.8213 4.85218 17.9129 4.72217 16.9238Z" fill="#FFBC2F"/>
</svg>
