<svg width="23" height="22" viewBox="0 0 23 22" fill="none" xmlns="http://www.w3.org/2000/svg">
<path d="M21.9519 11.0272C22.1728 11.0272 22.3519 10.8481 22.3519 10.6272C22.3519 10.4063 22.1728 10.2272 21.9519 10.2272L21.9519 11.0272ZM5.66906 10.3444C5.51285 10.5006 5.51285 10.7538 5.66906 10.91L8.21465 13.4556C8.37086 13.6118 8.62412 13.6118 8.78033 13.4556C8.93654 13.2994 8.93654 13.0461 8.78033 12.8899L6.51759 10.6272L8.78033 8.36445C8.93654 8.20824 8.93654 7.95498 8.78033 7.79877C8.62412 7.64256 8.37086 7.64256 8.21465 7.79877L5.66906 10.3444ZM21.9519 10.2272L5.9519 10.2272L5.9519 11.0272L21.9519 11.0272L21.9519 10.2272Z" fill="#0D2E3F"/>
<path d="M19.6201 14.9226C18.0116 18.3082 14.5606 20.6489 10.563 20.6489C5.02814 20.6489 0.54126 16.162 0.54126 10.6272C0.54126 5.09235 5.02814 0.605469 10.563 0.605469C14.7048 0.605469 18.2598 3.11803 19.7869 6.7021" stroke="#0D2E3F" stroke-width="0.8" stroke-linecap="round"/>
</svg>
