<svg width="8" height="252" viewBox="0 0 8 252" fill="none" xmlns="http://www.w3.org/2000/svg">
<path d="M3.7417 0.75765C2.26894 0.75765 1.07503 1.95156 1.07503 3.42432C1.07503 4.89708 2.26894 6.09098 3.7417 6.09098C5.21446 6.09098 6.40837 4.89708 6.40837 3.42432C6.40837 1.95156 5.21446 0.75765 3.7417 0.75765ZM3.38813 251.585C3.5834 251.78 3.89998 251.78 4.09524 251.585L7.27722 248.403C7.47248 248.208 7.47248 247.891 7.27722 247.696C7.08196 247.501 6.76538 247.501 6.57012 247.696L3.74169 250.524L0.913261 247.696C0.717999 247.501 0.401417 247.501 0.206155 247.696C0.0108924 247.891 0.0108924 248.208 0.206155 248.403L3.38813 251.585ZM3.2417 3.42432L3.24169 251.231L4.24169 251.231L4.2417 3.42432L3.2417 3.42432Z" fill="#FFCC49"/>
</svg>
