<svg width="74" height="35" viewBox="0 0 74 35" fill="none" xmlns="http://www.w3.org/2000/svg">
<path d="M67.2833 22.4456C57.6917 17.5248 47.6831 14.1052 36.6737 14.6056C30.6686 14.9392 24.9136 16.6073 19.9093 20.2771C19.4923 20.6107 19.0753 20.7776 18.4915 20.7776C16.6566 20.7776 14.7382 20.861 12.9033 20.9444C9.23353 21.1946 5.64712 21.695 2.22752 23.1963C0.0589998 24.1137 0.142405 24.1137 1.14326 26.1989C1.7271 27.3665 2.56114 28.7844 1.31007 29.9521C0.476024 30.8695 1.14326 31.0363 1.7271 31.1197C3.06157 31.2866 4.39605 31.37 5.73053 31.4534C6.81479 31.6202 7.23181 31.37 7.23181 30.0355C7.14841 26.6993 9.73396 24.2806 12.9867 24.2806C16.1561 24.2806 18.7417 26.8661 18.6583 30.0355C18.6583 31.2866 19.0753 31.4534 20.1596 31.4534C30.3349 31.4534 40.5103 31.4534 50.6857 31.4534C51.1861 31.4534 51.6032 31.4534 52.1036 31.4534C52.1036 31.2866 52.187 31.2032 52.187 31.1197C51.8534 27.4499 54.1887 24.5308 57.5249 24.364C61.1113 24.1971 63.6969 26.7827 63.6969 30.5359C63.6969 31.4534 64.0305 31.5368 64.7811 31.5368C65.2816 31.5368 65.6986 31.5368 66.199 31.5368C68.1173 31.5368 68.9514 30.8695 69.2016 28.9512C69.3684 28.0338 69.3684 27.0329 69.1182 26.1155C68.7012 24.781 68.7012 23.1963 67.2833 22.4456ZM34.5052 21.0278C30.5852 21.0278 26.5817 21.0278 22.6617 21.0278C27.0822 17.9418 32.003 16.3571 37.341 16.2737C37.9248 16.2737 38.2584 16.4405 38.175 17.0243C38.175 17.1077 38.175 17.1077 38.175 17.1911C38.3418 21.0278 38.3418 21.0278 34.5052 21.0278ZM50.7691 21.0278C47.5163 21.0278 44.2635 21.0278 41.0942 21.0278C40.2601 21.0278 39.8431 20.861 40.0099 19.9435C40.0933 19.6933 40.0099 19.3597 40.0099 19.1095C40.0099 16.1903 40.0099 16.1069 42.9291 16.4405C46.5155 16.8575 50.1019 17.5248 53.2713 19.2763C54.1053 19.6933 54.856 20.1937 55.7734 21.1112C53.8551 21.0278 52.3538 21.0278 50.7691 21.0278Z" fill="#533E32"/>
<path d="M73.1216 8.68386C72.1208 4.59702 69.4518 1.92807 65.365 1.01061C61.3615 0.0931613 57.8585 1.26083 55.1896 4.34681C52.5206 7.43278 52.1036 11.1026 53.4381 14.9392C53.6049 15.5231 53.9385 15.8567 54.6058 16.0235C57.1913 16.8575 59.6934 17.8584 62.1956 18.7758C62.3624 17.6082 62.3624 16.6907 60.7777 16.7741C60.4441 16.7741 60.0271 16.5239 59.6934 16.4405C58.8594 16.1069 59.4432 15.6065 59.4432 15.106C59.5266 14.5222 59.8603 14.4388 60.3607 14.689C61.1113 15.106 62.0288 15.1894 62.8628 15.106C63.6135 15.0226 64.2807 14.8558 64.5309 14.0218C64.7811 13.1043 64.2807 12.5205 63.5301 12.1869C62.8628 11.8532 62.1122 11.603 61.445 11.2694C60.2773 10.6856 59.2764 9.85152 59.3598 8.35024C59.3598 6.76555 60.1939 5.84809 61.6118 5.43107C62.279 5.18085 62.3624 4.84724 62.3624 4.2634C62.279 3.59616 62.4458 3.34595 63.1964 3.34595C63.8637 3.34595 64.0305 3.59616 63.9471 4.18C63.6969 5.26426 64.6977 5.01404 65.1982 5.26426C65.782 5.51447 66.6995 5.34766 66.3658 6.51533C66.1156 7.18257 65.9488 7.43278 65.1982 7.09916C64.4475 6.76555 63.6135 6.68214 62.8628 6.84895C62.3624 7.01576 61.862 7.26597 61.7786 7.84981C61.6952 8.43364 61.9454 8.85067 62.4458 9.18429C63.2799 9.60131 64.1139 10.0183 65.0314 10.4354C66.3658 11.1026 67.1165 12.02 67.0331 13.5213C66.9497 15.0226 66.199 15.9401 64.7811 16.5239C64.3641 16.6907 63.6135 16.6907 63.8637 17.4414C64.1139 18.3588 63.5301 18.7758 62.7794 19.0261C63.6969 19.4431 64.6143 19.6933 65.5318 20.1937C66.4492 20.7776 67.2833 20.6107 68.2007 20.1103C72.1208 18.0252 74.2893 13.3545 73.1216 8.68386Z" fill="#0D2E3F"/>
<path d="M58.0254 25.4481C55.3564 25.4481 53.3547 27.4498 53.3547 30.1188C53.3547 32.7043 55.3564 34.7061 57.942 34.7061C60.6109 34.7061 62.6126 32.7043 62.6126 30.0354C62.6126 27.4498 60.6109 25.4481 58.0254 25.4481ZM59.7769 30.2022C59.6935 31.2865 59.0262 31.7869 57.942 31.7869C56.9411 31.6201 56.3573 31.1196 56.2739 30.0354C56.2739 29.0345 57.1079 28.2839 58.1088 28.2839C59.1096 28.3673 59.8603 29.2013 59.7769 30.2022Z" fill="#533E32"/>
<path d="M13.0701 25.4481C10.4012 25.4481 8.39948 27.4498 8.39948 30.1188C8.39948 32.7043 10.4012 34.7061 12.9867 34.7061C15.6557 34.7061 17.6574 32.7043 17.6574 30.0354C17.6574 27.4498 15.6557 25.4481 13.0701 25.4481ZM13.3204 31.8703C12.0693 31.8703 11.2352 31.1196 11.3186 30.1188C11.4021 29.0345 11.9859 28.4507 12.9867 28.3673C13.9876 28.2839 14.8216 29.1179 14.8216 30.1188C14.7382 31.2031 14.1544 31.7035 13.3204 31.8703Z" fill="#533E32"/>
</svg>
