<svg width="37" height="37" viewBox="0 0 37 37" fill="none" xmlns="http://www.w3.org/2000/svg">
<path fill-rule="evenodd" clip-rule="evenodd" d="M18.1582 36.8516C28.0993 36.8516 36.1582 28.7927 36.1582 18.8516C36.1582 8.91044 28.0993 0.851562 18.1582 0.851562C8.21708 0.851562 0.158203 8.91044 0.158203 18.8516C0.158203 28.7927 8.21708 36.8516 18.1582 36.8516ZM27.6284 12.4699C27.9251 13.2951 28.0826 14.1681 28.0938 15.0498C28.1557 16.1588 28.156 16.5215 28.1582 19.3289V19.329L28.1582 19.3679C28.1582 22.212 28.1438 22.5671 28.096 23.6871C28.0794 24.5591 27.9228 25.4183 27.6307 26.2332C27.3731 26.929 26.98 27.561 26.4766 28.0888C25.9731 28.6165 25.3702 29.0286 24.7064 29.2986C23.9294 29.6043 23.1084 29.7692 22.2786 29.7864C21.218 29.8516 20.8703 29.8516 18.1582 29.8516C15.4461 29.8516 15.1073 29.8364 14.0378 29.7864C13.2064 29.7577 12.3857 29.5805 11.6111 29.2625C10.947 28.9931 10.3439 28.5814 9.84016 28.0538C9.33645 27.5261 8.94327 26.8942 8.68575 26.1983C8.39365 25.3822 8.23706 24.523 8.2204 23.6522C8.1582 22.5392 8.1582 22.1759 8.1582 19.3329C8.1582 16.4899 8.17264 16.1349 8.2204 15.0137C8.23608 14.1442 8.39347 13.2839 8.68575 12.4699C8.94284 11.7738 9.33573 11.1416 9.83927 10.6137C10.3428 10.0859 10.9459 9.67406 11.61 9.40456C12.3867 9.09892 13.2072 8.93359 14.0367 8.91559C15.0973 8.85156 15.445 8.85156 18.1571 8.85156C20.8692 8.85156 21.208 8.86553 22.2764 8.91559C23.1062 8.93345 23.9271 9.09879 24.7042 9.40456C25.3682 9.67425 25.9712 10.0862 26.4747 10.614C26.9782 11.1418 27.3712 11.7739 27.6284 12.4699ZM13.016 19.3271C13.016 22.3005 15.3139 24.7093 18.1504 24.7093C19.5122 24.7093 20.8181 24.1422 21.781 23.1329C22.7439 22.1235 23.2848 20.7545 23.2848 19.3271C23.2848 17.8997 22.7439 16.5307 21.781 15.5214C20.8181 14.512 19.5122 13.945 18.1504 13.945C15.3139 13.945 13.016 16.3537 13.016 19.3271ZM23.0308 14.9057C23.1762 14.9687 23.3319 15.0011 23.4892 15.0009C24.15 15.0009 24.6853 14.4398 24.6853 13.7459C24.6853 13.5812 24.6544 13.418 24.5942 13.2658C24.5341 13.1137 24.4459 12.9754 24.3348 12.8589C24.2237 12.7424 24.0918 12.65 23.9466 12.587C23.8014 12.5239 23.6458 12.4915 23.4886 12.4915C23.3315 12.4915 23.1758 12.5239 23.0307 12.587C22.8855 12.65 22.7535 12.7424 22.6424 12.8589C22.5313 12.9754 22.4432 13.1137 22.383 13.2658C22.3229 13.418 22.2919 13.5812 22.2919 13.7459C22.2918 13.9108 22.3226 14.074 22.3828 14.2264C22.4429 14.3787 22.5311 14.5171 22.6423 14.6337C22.7535 14.7502 22.8855 14.8427 23.0308 14.9057ZM21.4856 19.3271C21.4856 21.258 19.9924 22.8232 18.1504 22.8232C16.3085 22.8232 14.8152 21.258 14.8152 19.3271C14.8152 17.3963 16.3085 15.831 18.1504 15.831C19.9924 15.831 21.4856 17.3963 21.4856 19.3271Z" fill="#9C9C9C"/>
</svg>
