<svg width="37" height="37" viewBox="0 0 37 37" fill="none" xmlns="http://www.w3.org/2000/svg">
<g clip-path="url(#clip0_88_982)">
<path d="M18.1584 1.57153C8.61482 1.57153 0.878418 9.30793 0.878418 18.8515C0.878418 28.3951 8.61482 36.1315 18.1584 36.1315C27.702 36.1315 35.4384 28.3951 35.4384 18.8515C35.4384 9.30793 27.702 1.57153 18.1584 1.57153ZM13.9284 26.0137H10.4292V14.7529H13.9284V26.0137ZM12.1572 13.3705C11.052 13.3705 10.3374 12.5875 10.3374 11.6191C10.3374 10.6309 11.0736 9.87133 12.2022 9.87133C13.3308 9.87133 14.022 10.6309 14.0436 11.6191C14.0436 12.5875 13.3308 13.3705 12.1572 13.3705ZM26.7084 26.0137H23.2092V19.7731C23.2092 18.3205 22.7016 17.3341 21.4362 17.3341C20.4696 17.3341 19.8954 18.0019 19.6416 18.6445C19.548 18.8731 19.5246 19.1971 19.5246 19.5193V26.0119H16.0236V18.3439C16.0236 16.9381 15.9786 15.7627 15.9318 14.7511H18.972L19.1322 16.3153H19.2024C19.6632 15.5809 20.7918 14.4973 22.68 14.4973C24.9822 14.4973 26.7084 16.0399 26.7084 19.3555V26.0137Z" fill="#9C9C9C"/>
</g>
<defs>
<clipPath id="clip0_88_982">
<rect width="36" height="36" fill="white" transform="translate(0.158203 0.851562)"/>
</clipPath>
</defs>
</svg>
