<svg width="26" height="25" viewBox="0 0 26 25" fill="none" xmlns="http://www.w3.org/2000/svg">
<path d="M1.96826 10.4102L5.48389 6.50391C5.55743 6.42439 5.64651 6.36083 5.74562 6.31716C5.84473 6.27348 5.95176 6.25062 6.06006 6.25H12.7007V3.125C12.7007 2.9178 12.783 2.71909 12.9295 2.57257C13.076 2.42606 13.2747 2.34375 13.4819 2.34375C13.6891 2.34375 13.8878 2.42606 14.0344 2.57257C14.1809 2.71909 14.2632 2.9178 14.2632 3.125V6.25H22.0757C22.4901 6.25 22.8875 6.41462 23.1805 6.70765C23.4736 7.00067 23.6382 7.3981 23.6382 7.8125V14.0625C23.6382 14.4769 23.4736 14.8743 23.1805 15.1674C22.8875 15.4604 22.4901 15.625 22.0757 15.625H14.2632V21.875C14.2632 22.0822 14.1809 22.2809 14.0344 22.4274C13.8878 22.5739 13.6891 22.6562 13.4819 22.6562C13.2747 22.6562 13.076 22.5739 12.9295 22.4274C12.783 22.2809 12.7007 22.0822 12.7007 21.875V15.625H6.06006C5.95176 15.6244 5.84473 15.6015 5.74562 15.5578C5.64651 15.5142 5.55743 15.4506 5.48389 15.3711L1.96826 11.4648C1.83651 11.3208 1.76343 11.1327 1.76343 10.9375C1.76343 10.7423 1.83651 10.5542 1.96826 10.4102ZM6.41162 14.0625H22.0757V7.8125H6.41162L3.59912 10.9375L6.41162 14.0625Z" fill="#FFBC2F"/>
</svg>
