<svg width="37" height="37" viewBox="0 0 37 37" fill="none" xmlns="http://www.w3.org/2000/svg">
<rect x="0.5" y="0.719971" width="35.976" height="36" rx="17.988" fill="#AAAAAA"/>
<path d="M26.476 23.784C26.476 24.072 26.412 24.368 26.276 24.656C26.14 24.944 25.964 25.216 25.732 25.472C25.34 25.904 24.908 26.216 24.42 26.416C23.94 26.616 23.42 26.72 22.86 26.72C22.044 26.72 21.172 26.528 20.252 26.136C19.332 25.744 18.412 25.216 17.5 24.552C16.58 23.88 15.708 23.136 14.876 22.312C14.052 21.48 13.308 20.608 12.644 19.696C11.988 18.784 11.46 17.872 11.076 16.968C10.692 16.056 10.5 15.184 10.5 14.352C10.5 13.808 10.596 13.288 10.788 12.808C10.98 12.32 11.284 11.872 11.708 11.472C12.22 10.968 12.78 10.72 13.372 10.72C13.596 10.72 13.82 10.768 14.02 10.864C14.228 10.96 14.412 11.104 14.556 11.312L16.412 13.928C16.556 14.128 16.66 14.312 16.732 14.488C16.804 14.656 16.844 14.824 16.844 14.976C16.844 15.168 16.788 15.36 16.676 15.544C16.572 15.728 16.42 15.92 16.228 16.112L15.62 16.744C15.532 16.832 15.492 16.936 15.492 17.064C15.492 17.128 15.5 17.184 15.516 17.248C15.54 17.312 15.564 17.36 15.58 17.408C15.724 17.672 15.972 18.016 16.324 18.432C16.684 18.848 17.068 19.272 17.484 19.696C17.916 20.12 18.332 20.512 18.756 20.872C19.172 21.224 19.516 21.464 19.788 21.608C19.828 21.624 19.876 21.648 19.932 21.672C19.996 21.696 20.06 21.704 20.132 21.704C20.268 21.704 20.372 21.656 20.46 21.568L21.068 20.968C21.268 20.768 21.46 20.616 21.644 20.52C21.828 20.408 22.012 20.352 22.212 20.352C22.364 20.352 22.524 20.384 22.7 20.456C22.876 20.528 23.06 20.632 23.26 20.768L25.908 22.648C26.116 22.792 26.26 22.96 26.348 23.16C26.428 23.36 26.476 23.56 26.476 23.784Z" fill="black"/>
</svg>
