<svg width="48" height="45" viewBox="0 0 48 45" fill="none" xmlns="http://www.w3.org/2000/svg">
<path d="M33.3285 28.5956C28.1216 29.2181 23.3108 30.6897 18.7265 32.8404C18.3303 33.0102 18.1039 32.9536 17.8775 32.5574C15.274 28.0296 12.6706 23.5018 10.0671 18.9741C9.67093 18.3515 10.1237 18.1817 10.4633 17.9553C13.9157 15.5217 17.0851 12.6352 19.8018 9.35257C20.2546 8.7866 20.7074 8.22063 21.2167 7.54146C25.2351 14.6161 29.2535 21.5775 33.3285 28.5956Z" fill="white"/>
<path d="M0.162598 27.7465C0.275792 25.4827 1.18135 23.615 3.16225 22.4264C4.52058 21.5775 5.8789 20.8417 7.23723 20.0493C7.69001 19.7663 7.8598 19.9361 8.08619 20.3323C10.6331 24.8035 13.1799 29.2181 15.7834 33.6326C16.0664 34.142 16.0098 34.3118 15.557 34.5948C14.2553 35.3305 12.9535 36.1229 11.5952 36.8587C8.53897 38.5566 4.86016 37.5944 3.10565 34.5382C2.0869 32.7837 0.841764 31.199 0.332391 29.1615C0.219196 28.6521 0.162598 28.1993 0.162598 27.7465Z" fill="white"/>
<path d="M25.3483 2.44772C25.8577 2.44772 26.5368 2.9005 26.9896 3.69286C28.2347 5.90015 29.5365 8.05084 30.725 10.2581C31.008 10.8241 31.2344 10.9939 31.857 10.6543C33.8945 9.57896 36.3281 10.3147 37.4035 12.1824C38.5354 14.1633 37.9694 16.5404 35.9319 17.8421C35.4226 18.1817 35.366 18.3515 35.649 18.8609C37.0073 21.1248 38.309 23.3886 39.5542 25.6525C40.4031 27.1807 39.724 28.822 38.0826 29.2181C37.0639 29.4445 36.1017 28.9918 35.4226 27.8032C32.6493 22.9925 29.8761 18.1817 27.1028 13.371C25.6879 10.9373 24.2729 8.50361 22.9146 6.06994C22.0091 4.37202 23.0278 2.44772 25.3483 2.44772Z" fill="white"/>
<path d="M23.99 41.1601C23.99 41.1601 23.99 41.2733 23.9334 41.3299C23.8202 42.0091 21.5563 44.3296 20.9337 44.4428C20.4244 44.556 19.915 44.4428 19.5188 44.0466C17.7077 42.2355 15.8966 40.4244 14.0855 38.6133C13.6893 38.2737 13.8591 38.1039 14.1987 37.9341C15.557 37.1417 16.9154 36.3494 18.2737 35.557C18.6699 35.3306 18.9528 35.3872 19.2358 35.7268C20.5942 37.1417 21.9525 38.5001 23.3674 39.8584C23.7636 40.198 23.99 40.5376 23.99 41.1601Z" fill="#0D2E3F"/>
<path d="M36.3282 7.14524C35.366 7.14524 34.8566 6.52267 34.9698 5.73031C35.2528 4.31538 35.5924 2.90046 35.8754 1.48553C36.0452 0.749768 36.5545 0.353587 37.2903 0.523379C38.0261 0.69317 38.3091 1.25914 38.1393 1.9949C37.8563 3.35323 37.5167 4.71156 37.2337 6.06989C37.1771 6.74906 36.8375 7.08864 36.3282 7.14524Z" fill="#0D2E3F"/>
<path d="M46.7986 7.99419C46.7986 8.44697 46.5156 8.78655 46.1194 9.01294C44.9309 9.69211 43.7424 10.4279 42.4972 11.107C41.8181 11.5032 41.1955 11.4466 40.7427 10.7109C40.3465 9.97509 40.6861 9.46572 41.3087 9.06954C42.4972 8.33378 43.6858 7.65461 44.9309 6.97545C45.8364 6.52267 46.7986 7.03204 46.7986 7.99419Z" fill="#0D2E3F"/>
<path d="M47.9871 18.5778C47.9305 19.3136 47.2514 19.823 46.5722 19.6532C45.1007 19.2004 43.6292 18.7476 42.1576 18.2383C41.5351 18.0119 41.2521 17.5025 41.4785 16.8233C41.7049 16.2008 42.2142 15.8612 42.8368 16.0876C44.3649 16.5404 45.8364 16.9931 47.308 17.5591C47.8173 17.6723 48.0437 18.0685 47.9871 18.5778Z" fill="#0D2E3F"/>
</svg>
