<svg width="36" height="37" viewBox="0 0 36 37" fill="none" xmlns="http://www.w3.org/2000/svg">
<g clip-path="url(#clip0_88_984)">
<path d="M17.6582 0.851562C27.3235 0.851562 35.1582 8.91016 35.1582 18.8516C35.1582 28.793 27.3235 36.8516 17.6582 36.8516C7.99295 36.8516 0.158203 28.793 0.158203 18.8516C0.158203 8.91016 7.99295 0.851562 17.6582 0.851562ZM25.4317 11.6516C24.765 11.6642 23.7412 12.0242 18.8185 14.1032C15.3631 15.5869 11.9172 17.0941 8.4812 18.6248C7.6412 18.965 7.2037 19.2962 7.16345 19.6202C7.08645 20.243 7.96845 20.4356 9.07795 20.8028C9.9827 21.1016 11.2007 21.4508 11.8342 21.4652C12.4082 21.4778 13.0487 21.2366 13.7557 20.7452C18.5857 17.4332 21.076 15.761 21.2335 15.725C21.3437 15.6998 21.496 15.6674 21.601 15.761C21.7042 15.8546 21.6937 16.031 21.6815 16.0796C21.594 16.4594 17.0597 20.648 16.799 20.9234L16.673 21.053C15.7105 22.0304 14.7392 22.6694 16.4157 23.7908C17.9312 24.8042 18.8132 25.4504 20.3707 26.4908C21.3682 27.1532 22.1505 27.9398 23.1795 27.8444C23.6537 27.7994 24.142 27.3476 24.3922 25.9976C24.9785 22.8116 26.1335 15.9032 26.3995 13.0556C26.4155 12.8194 26.4056 12.5821 26.3697 12.3482C26.3481 12.1593 26.2581 11.9858 26.1177 11.8622C25.906 11.6858 25.577 11.6498 25.4317 11.6516Z" fill="#9C9C9C"/>
</g>
<defs>
<clipPath id="clip0_88_984">
<rect width="35" height="36" fill="white" transform="translate(0.158203 0.851562)"/>
</clipPath>
</defs>
</svg>
